<svg>
  <symbol id="external-link" class="fill-current h-full w-full" style="width: 100%; height: 100%" viewBox="0 0 20 20" xmlns="http://www.w3.org/2000/svg">
    <g clip-path="url(#clip0)">
      <path d="M18.9656 0L20 0.966047L9.03438 11.2L8 10.2346L18.9656 0Z"/>
      <path d="M20 7.2H18.56V1.44H12.8V0H20V7.2Z"/>
      <path d="M16.9846 20H2.21538C0.96 20 0 19.04 0 17.7846V3.01537C0 1.75999 0.96 0.799988 2.21538 0.799988H10.3385V2.27691H2.21538C1.77231 2.27691 1.47692 2.5723 1.47692 3.01537V17.7846C1.47692 18.2277 1.77231 18.5231 2.21538 18.5231H16.9846C17.4277 18.5231 17.7231 18.2277 17.7231 17.7846V9.66153H19.2V17.7846C19.2 19.04 18.24 20 16.9846 20Z"/>
    </g>
    <defs>
      <clipPath id="clip0">
        <rect width="20" height="20" fill="white"/>
      </clipPath>
    </defs>
  </symbol>
</svg>

