<svg>
  <symbol id="external-link" class="fill-current h-full w-full" style="width: 100%; height: 100%" viewBox="0 0 20 20" xmlns="http://www.w3.org/2000/svg">
    <g clip-path="url(#clip0)">
      <path d="M18.9656 0L20 0.966047L9.03438 11.2L8 10.2346L18.9656 0Z"/>
      <path d="M20 7.2H18.56V1.44H12.8V0H20V7.2Z"/>
      <path d="M16.9846 20H2.21538C0.96 20 0 19.04 0 17.7846V3.01537C0 1.75999 0.96 0.799988 2.21538 0.799988H10.3385V2.27691H2.21538C1.77231 2.27691 1.47692 2.5723 1.47692 3.01537V17.7846C1.47692 18.2277 1.77231 18.5231 2.21538 18.5231H16.9846C17.4277 18.5231 17.7231 18.2277 17.7231 17.7846V9.66153H19.2V17.7846C19.2 19.04 18.24 20 16.9846 20Z"/>
    </g>
    <defs>
      <clipPath id="clip0">
        <rect width="20" height="20" fill="white"/>
      </clipPath>
    </defs>
  </symbol>

  <symbol id="star-empty" viewBox="0 0 20 20" xmlns="http://www.w3.org/2000/svg">
    <path d="M8.78803 0.753C9.28303 -0.251 10.714 -0.251 11.209 0.753L13.567 5.53L18.84 6.296C19.947 6.457 20.389 7.818 19.588 8.599L15.772 12.319L16.673 17.569C16.863 18.672 15.705 19.513 14.714 18.993L9.99803 16.513L5.28303 18.993C4.29303 19.513 3.13503 18.673 3.32303 17.569L4.22403 12.319L0.409031 8.599C-0.391969 7.819 0.0500314 6.457 1.15703 6.296L6.43003 5.53L8.78803 0.753ZM9.99803 1.689L7.74003 6.265C7.64314 6.46112 7.50005 6.63076 7.32306 6.75932C7.14608 6.88788 6.9405 6.97151 6.72403 7.003L1.67403 7.737L5.32803 11.299C5.64603 11.609 5.79103 12.056 5.71603 12.494L4.85403 17.524L9.37003 15.149C9.56384 15.047 9.77954 14.9938 9.99853 14.9938C10.2175 14.9938 10.4332 15.047 10.627 15.149L15.143 17.523L14.281 12.494C14.244 12.2783 14.2599 12.0568 14.3275 11.8486C14.3951 11.6404 14.5123 11.4518 14.669 11.299L18.323 7.737L13.273 7.003C13.0566 6.97151 12.851 6.88788 12.674 6.75932C12.497 6.63076 12.3539 6.46112 12.257 6.265L9.99803 1.689Z"/>
  </symbol>
</svg>

